<?xml version="1.0" encoding="UTF-8" standalone="no"?>
<!DOCTYPE svg PUBLIC "-//W3C//DTD SVG 1.1//EN" "http://www.w3.org/Graphics/SVG/1.1/DTD/svg11.dtd">
<svg width="511px" height="34px" version="1.1" xmlns="http://www.w3.org/2000/svg" xmlns:xlink="http://www.w3.org/1999/xlink" xml:space="preserve" xmlns:serif="http://www.serif.com/" style="fill-rule:evenodd;clip-rule:evenodd;stroke-linejoin:round;stroke-miterlimit:1.5;">
    <path d="M1.063,29.156C1.05,30.801 1.029,33 1,33L61,33C61.007,33 61.011,30.792 61.014,29.133L61,29.158L65.063,29.156C65.05,30.801 65.029,33 65,33L125,33C125.007,33 125.011,30.792 125.014,29.133L125.018,29.133L129.063,29.156C129.05,30.801 129.029,33 129,33L189,33C189.007,33 189.011,30.792 189.014,29.133L189,29.158L193.063,29.156C193.05,30.801 193.029,33 193,33L253,33C253.007,33 253.011,30.792 253.014,29.133L257.063,29.156C257.05,30.801 257.029,33 257,33L317,33C317.007,33 317.011,30.792 317.014,29.133L317,29.158L321.063,29.156C321.05,30.801 321.029,33 321,33L381,33C381.007,33 381.011,30.792 381.014,29.133L381.018,29.133L385.063,29.156C385.05,30.801 385.029,33 385,33L445,33C445.007,33 445.011,30.792 445.014,29.133L445,29.158L449.063,29.156C449.05,30.801 449.029,33 449,33L509,33C509.007,33 509.011,30.792 509.014,29.133" style="fill:none;stroke:#000;stroke-width:2px;"/>
    <path d="M509.018,20.776C509.02,14.324 509.012,9.746 509,4.799C508.995,2.701 507.299,1 505.201,1C494.401,1 463.6,1 452.799,1C450.701,1 448.978,2.701 449,4.799C449.054,9.759 449.089,14.366 449.083,20.822L445.018,20.776C445.02,14.324 445.012,9.746 445,4.799C444.995,2.701 443.299,1 441.201,1C430.401,1 399.6,1 388.799,1C386.701,1 384.978,2.701 385,4.799C385.054,9.759 385.089,14.366 385.083,20.822L381.018,20.75L381.018,20.776C381.02,14.324 381.012,9.746 381,4.799C380.995,2.701 379.299,1 377.201,1C366.401,1 335.6,1 324.799,1C322.701,1 320.978,2.701 321,4.799C321.054,9.759 321.089,14.366 321.083,20.822L317.018,20.776C317.02,14.324 317.012,9.746 317,4.799C316.995,2.701 315.299,1 313.201,1C302.401,1 271.6,1 260.799,1C258.701,1 256.978,2.701 257,4.799C257.054,9.759 257.089,14.366 257.083,20.822L253.018,20.776C253.02,14.324 253.012,9.746 253,4.799C252.995,2.701 251.299,1 249.201,1C238.401,1 207.6,1 196.799,1C194.701,1 192.978,2.701 193,4.799C193.054,9.759 193.089,14.366 193.083,20.822L189.018,20.776C189.02,14.324 189.012,9.746 189,4.799C188.995,2.701 187.299,1 185.201,1C174.401,1 143.6,1 132.799,1C130.701,1 128.978,2.701 129,4.799C129.054,9.759 129.089,14.366 129.083,20.822L125.018,20.75L125.018,20.776C125.02,14.324 125.012,9.746 125,4.799C124.995,2.701 123.299,1 121.201,1C110.401,1 79.6,1 68.799,1C66.701,1 64.978,2.701 65,4.799C65.054,9.759 65.089,14.366 65.083,20.822L61.018,20.776C61.02,14.324 61.012,9.746 61,4.799C60.995,2.701 59.299,1 57.201,1C46.401,1 15.6,1 4.799,1C2.701,1 0.978,2.701 1,4.799C1.054,9.759 1.089,14.366 1.083,20.822" style="fill:none;stroke:#000;stroke-width:2px;"/>
</svg>
